PathFileType	4	(X/Y/Z)	c:/Users/goper/Files/vsCode/490R/osim_files/C10/C10_Slow_03.trc
DataRate	CameraRate	NumFrames	NumMarkers	Units                	OrigDataRate	OrigDataStartFrame	OrigNumFrames
250.00	250.00	11	36	mm	250.0	1976	3160
                Frame#	Time	LPSIS			LASIS			LTH1			LTH2			LTH3			LTH4			LLFE			LMFE			LSH1			LSH2			LSH3			LSH4			LLMAL			LMMAL			LCAL			LMTP5			LTOE			LMTP1			RPSIS			RASIS			RTH1			RTH2			RTH3			RTH4			RLFE			RMFE			RSH1			RSH2			RSH3			RSH4			RLMAL			RMMAL			RCAL			RMTP1			RTOE			RMTP5		
		X1	Y1	Z1	X2	Y2	Z2	X3	Y3	Z3	X4	Y4	Z4	X5	Y5	Z5	X6	Y6	Z6	X7	Y7	Z7	X8	Y8	Z8	X9	Y9	Z9	X10	Y10	Z10	X11	Y11	Z11	X12	Y12	Z12	X13	Y13	Z13	X14	Y14	Z14	X15	Y15	Z15	X16	Y16	Z16	X17	Y17	Z17	X18	Y18	Z18	X19	Y19	Z19	X20	Y20	Z20	X21	Y21	Z21	X22	Y22	Z22	X23	Y23	Z23	X24	Y24	Z24	X25	Y25	Z25	X26	Y26	Z26	X27	Y27	Z27	X28	Y28	Z28	X29	Y29	Z29	X30	Y30	Z30	X31	Y31	Z31	X32	Y32	Z32	X33	Y33	Z33	X34	Y34	Z34	X35	Y35	Z35	X36	Y36	Z36

1976	7.90000	-2772.23755	1014.63196	182.29166	-2914.08130	987.25293	50.64429	0.00000	0.00000	0.00000	-2914.57251	685.98230	20.02295	-2964.21094	751.08899	17.83299	0.00000	0.00000	0.00000	-2983.95386	477.79034	61.82357	-2905.04883	411.84280	70.19818	-2878.76538	464.28293	69.73969	-2852.00806	431.98682	69.09949	0.00000	0.00000	0.00000	-2880.21997	393.40372	59.79328	-2661.83740	251.18224	117.61288	0.00000	0.00000	0.00000	-2584.91919	257.17316	188.20779	-2678.04883	122.86519	74.77345	-2697.91138	68.74793	129.08054	-2725.09204	113.18588	172.94037	-2788.45190	1010.35931	247.91039	-2963.89966	1025.90796	371.79959	0.00000	0.00000	0.00000	0.00000	0.00000	0.00000	-2931.01074	778.45172	434.80353	-2942.44653	731.73059	427.98053	-2990.68506	496.21423	341.83411	-2973.80713	490.58563	227.50572	0.00000	0.00000	0.00000	-2928.72681	353.62604	356.58615	0.00000	0.00000	0.00000	-2936.62500	403.22504	355.28116	-2951.89722	89.17351	294.87286	0.00000	0.00000	0.00000	-2891.14551	40.32915	254.76146	0.00000	0.00000	0.00000	-2969.40723	1012.99738	26.97661	0.00000	0.00000	0.00000
1977	7.90400	-2775.71899	1015.40698	182.59366	-2917.39185	987.84167	50.87185	0.00000	0.00000	0.00000	-2920.39355	686.83258	19.87709	-2969.44360	752.21857	17.90204	0.00000	0.00000	0.00000	-2992.01587	479.24213	61.97385	-2913.23779	412.97104	70.08669	-2886.58716	464.83878	69.92092	-2856.79443	433.08334	69.28512	0.00000	0.00000	0.00000	-2888.67065	393.98657	59.89397	-2672.18823	249.41835	117.92027	-2613.34668	259.79919	169.86218	0.00000	0.00000	0.00000	-2690.93018	121.71542	74.67109	-2711.30298	67.94362	128.92879	0.00000	0.00000	0.00000	0.00000	0.00000	0.00000	-2967.22681	1026.18396	371.83170	0.00000	0.00000	0.00000	0.00000	0.00000	0.00000	-2933.45752	778.70331	435.09335	-2944.75171	731.99548	428.23700	-2991.25854	496.12854	342.20309	-2975.10229	490.57986	227.77043	0.00000	0.00000	0.00000	-2929.02661	353.80508	356.67035	0.00000	0.00000	0.00000	-2937.11255	403.43350	355.34964	-2951.96313	89.22877	294.83301	0.00000	0.00000	0.00000	-2891.13647	40.37904	254.74997	0.00000	0.00000	0.00000	-2972.94043	1013.68042	27.10628	0.00000	0.00000	0.00000
1978	7.90800	-2779.15234	1016.12543	182.82893	0.00000	0.00000	0.00000	0.00000	0.00000	0.00000	-2926.16211	687.63568	19.77136	-2974.51074	753.26599	17.99443	0.00000	0.00000	0.00000	-2999.82715	480.67499	62.13260	-2921.39111	414.06342	70.04785	-2894.33838	465.29437	70.06670	-2864.92603	433.24625	69.46403	0.00000	0.00000	0.00000	-2897.16675	394.59335	59.97124	-2684.73926	246.75235	118.51366	0.00000	0.00000	0.00000	-2603.65796	250.84831	189.03281	-2703.89307	120.37114	74.57053	0.00000	0.00000	0.00000	-2728.95850	97.49935	172.23679	0.00000	0.00000	0.00000	-2970.64331	1026.46716	372.00247	0.00000	0.00000	0.00000	0.00000	0.00000	0.00000	-2935.90698	779.00018	435.26459	-2947.02100	732.22076	428.43387	-2991.73633	495.98764	342.60336	-2976.60425	490.57123	228.06660	0.00000	0.00000	0.00000	-2929.23535	353.94290	356.79959	0.00000	0.00000	0.00000	-2937.54883	403.62350	355.41983	-2951.97437	89.26256	294.81790	0.00000	0.00000	0.00000	-2891.08716	40.41432	254.77151	0.00000	0.00000	0.00000	-2976.56470	1014.38336	27.26444	0.00000	0.00000	0.00000
1979	7.91200	-2782.62622	1016.76459	183.02954	-2924.22070	989.08673	51.47121	0.00000	0.00000	0.00000	-2932.00610	688.38422	19.61283	-2979.61255	754.32343	18.09248	0.00000	0.00000	0.00000	-3007.62598	482.09976	62.30766	-2929.47705	415.18127	70.02058	-2902.11987	465.73901	70.18047	-2866.51074	434.69009	68.80209	0.00000	0.00000	0.00000	-2905.60596	395.08707	60.09150	-2695.24731	244.56337	118.82882	0.00000	0.00000	0.00000	-2633.60181	252.70699	170.55305	-2713.38843	119.63956	74.34203	0.00000	0.00000	0.00000	-2742.75659	96.17567	172.05205	0.00000	0.00000	0.00000	-2974.03906	1026.77686	372.16373	0.00000	0.00000	0.00000	0.00000	0.00000	0.00000	-2938.44336	779.27551	435.44559	-2949.23926	732.40417	428.62967	-2992.19775	495.87393	342.99771	-2978.01953	490.51328	228.38689	0.00000	0.00000	0.00000	-2929.46021	354.06863	356.90170	0.00000	0.00000	0.00000	-2937.91016	403.76883	355.48526	-2951.99609	89.30991	294.82526	0.00000	0.00000	0.00000	-2891.16333	40.42314	254.72284	0.00000	0.00000	0.00000	-2980.22534	1015.11621	27.47885	0.00000	0.00000	0.00000
1980	7.91600	-2786.08276	1017.34381	183.20494	-2927.63110	989.70142	51.81221	0.00000	0.00000	0.00000	-2937.58252	689.14801	19.49493	-2984.55078	755.33411	18.12527	0.00000	0.00000	0.00000	-3015.32666	483.53879	62.46814	0.00000	0.00000	0.00000	-2909.70508	466.11456	70.27736	-2878.76001	433.37201	68.75947	0.00000	0.00000	0.00000	-2915.23486	394.43524	59.91401	-2703.58105	242.98590	118.79382	-2695.69116	199.34366	171.30751	0.00000	0.00000	0.00000	-2730.30957	117.33349	74.30498	0.00000	0.00000	0.00000	-2756.67749	94.71727	172.01321	0.00000	0.00000	0.00000	-2977.34180	1027.03125	372.25500	0.00000	0.00000	0.00000	0.00000	0.00000	0.00000	-2940.91797	779.47821	435.65057	-2951.54590	732.58051	428.74811	-2992.65381	495.72604	343.43881	-2979.40869	490.37277	228.71634	0.00000	0.00000	0.00000	-2929.74097	354.24649	356.99741	0.00000	0.00000	0.00000	-2938.34302	403.93594	355.60614	-2952.03809	89.31002	294.80746	0.00000	0.00000	0.00000	-2891.12280	40.45173	254.77130	0.00000	0.00000	0.00000	-2983.84814	1015.78827	27.74694	0.00000	0.00000	0.00000
1981	7.92000	-2789.42651	1017.66602	183.38148	-2931.04883	990.27869	52.17942	0.00000	0.00000	0.00000	-2943.14038	689.92981	19.33815	-2989.45825	756.33685	18.15803	0.00000	0.00000	0.00000	-3023.03394	485.02072	62.71764	-3121.61353	511.58530	178.29358	-2917.21948	466.49600	70.41244	-2886.94312	433.30215	68.86815	0.00000	0.00000	0.00000	-2923.78955	394.85538	60.04784	-2714.28662	240.46689	119.01205	0.00000	0.00000	0.00000	-2632.56396	239.81949	189.79213	-2743.74292	115.61771	74.20469	0.00000	0.00000	0.00000	-2770.77075	93.20665	171.85591	0.00000	0.00000	0.00000	-2980.59595	1027.24561	372.33456	0.00000	0.00000	0.00000	0.00000	0.00000	0.00000	-2943.37183	779.61768	435.79486	-2953.96899	732.71454	428.80923	-2993.19653	495.59647	343.87936	-2980.77637	490.20105	229.01958	0.00000	0.00000	0.00000	-2930.02124	354.34833	357.12079	0.00000	0.00000	0.00000	-2938.80444	404.07477	355.69971	-2952.04346	89.31402	294.80426	0.00000	0.00000	0.00000	-2891.14404	40.44902	254.78352	0.00000	0.00000	0.00000	-2987.51562	1016.50171	28.01485	0.00000	0.00000	0.00000
1982	7.92400	-2792.79639	1018.07855	183.50171	0.00000	0.00000	0.00000	0.00000	0.00000	0.00000	-2948.59766	690.66785	19.14106	-2994.25195	757.30145	18.20949	0.00000	0.00000	0.00000	-3030.65283	486.54010	62.91085	0.00000	0.00000	0.00000	-2924.74658	466.78467	70.54254	-2895.01538	433.20285	68.95161	0.00000	0.00000	0.00000	-2932.26172	395.24173	60.18450	-2725.08105	237.73523	119.22522	0.00000	0.00000	0.00000	0.00000	0.00000	0.00000	-2757.33643	113.81900	74.11282	0.00000	0.00000	0.00000	-2784.96216	91.53194	171.82179	0.00000	0.00000	0.00000	-2983.92993	1027.45520	372.50616	0.00000	0.00000	0.00000	0.00000	0.00000	0.00000	-2945.93042	779.83020	435.88467	-2956.35962	732.87640	428.87875	-2993.73315	495.47546	344.24841	-2982.04810	490.00992	229.28000	0.00000	0.00000	0.00000	-2930.37524	354.48230	357.21234	0.00000	0.00000	0.00000	-2939.21582	404.19797	355.79700	-2952.02319	89.31226	294.80246	0.00000	0.00000	0.00000	-2891.18872	40.42171	254.73224	0.00000	0.00000	0.00000	-2991.24512	1017.25751	28.25187	0.00000	0.00000	0.00000
1983	7.92800	-2796.34351	1018.57861	183.60918	-2938.01196	991.51111	52.95372	0.00000	0.00000	0.00000	-2953.90112	691.41846	19.03472	-2999.00659	758.29797	18.19495	0.00000	0.00000	0.00000	-3038.08521	487.99329	63.10878	-3138.65771	516.10455	178.90833	-2932.06226	467.07791	70.65467	-2903.01489	433.02313	68.98640	0.00000	0.00000	0.00000	-2940.66577	395.59381	60.29329	-2738.30933	234.07823	119.72740	0.00000	0.00000	0.00000	-2675.88062	235.73598	171.62027	-2770.97559	111.84469	73.99323	0.00000	0.00000	0.00000	-2799.32861	89.86605	171.67230	0.00000	0.00000	0.00000	-2987.21094	1027.63074	372.61713	0.00000	0.00000	0.00000	0.00000	0.00000	0.00000	-2948.48022	779.97351	435.97989	-2958.80518	732.96735	428.92767	-2994.26978	495.34171	344.61847	-2983.38062	489.86819	229.49030	0.00000	0.00000	0.00000	-2930.67285	354.56122	357.28690	0.00000	0.00000	0.00000	-2939.69824	404.33035	355.90942	-2952.06738	89.32587	294.77057	0.00000	0.00000	0.00000	-2891.17261	40.41850	254.74614	0.00000	0.00000	0.00000	-2994.95581	1017.94476	28.53666	0.00000	0.00000	0.00000
1984	7.93200	-2799.72119	1018.81067	183.68761	-2941.50659	992.10620	53.34497	0.00000	0.00000	0.00000	-2959.09741	692.16925	18.80505	-3003.76123	759.26245	18.20389	0.00000	0.00000	0.00000	-3045.49194	489.50888	63.32002	0.00000	0.00000	0.00000	-2939.43726	467.27756	70.77312	-2910.97461	432.81403	69.05969	0.00000	0.00000	0.00000	-2949.08276	395.97534	60.45199	-2749.43579	230.93915	119.90102	0.00000	0.00000	0.00000	0.00000	0.00000	0.00000	-2784.77856	109.77681	73.86008	0.00000	0.00000	0.00000	-2813.90332	88.15953	171.56952	0.00000	0.00000	0.00000	-2990.38403	1027.79773	372.71738	-3013.25073	792.07697	419.53769	0.00000	0.00000	0.00000	-2951.19702	780.11432	436.10504	-2961.24756	733.06299	428.93109	-2995.01855	495.25864	344.96133	-2984.54590	489.67673	229.71687	0.00000	0.00000	0.00000	-2931.00952	354.66467	357.38535	0.00000	0.00000	0.00000	-2940.16846	404.39700	356.01703	-2952.07593	89.30972	294.78427	0.00000	0.00000	0.00000	-2891.16406	40.43051	254.72816	0.00000	0.00000	0.00000	-2998.63672	1018.61255	28.87545	0.00000	0.00000	0.00000
1985	7.93600	-2803.14038	1019.04187	183.71970	0.00000	0.00000	0.00000	0.00000	0.00000	0.00000	-2964.34229	692.89429	18.59091	-3008.45044	760.21686	18.14384	0.00000	0.00000	0.00000	-3052.93555	491.06430	63.59002	-2977.05078	421.88062	69.64238	-2946.54590	467.51486	70.89140	-2922.22144	431.62357	69.53684	0.00000	0.00000	0.00000	-2957.46484	396.32730	60.56377	-2760.49780	227.77638	120.05089	0.00000	0.00000	0.00000	-2685.63721	232.28273	176.12128	-2798.73755	107.66246	73.72181	0.00000	0.00000	0.00000	-2828.52148	86.30522	171.34494	0.00000	0.00000	0.00000	-2993.55005	1027.87927	372.80029	-3015.95361	792.00739	419.65698	0.00000	0.00000	0.00000	-2953.83203	780.24127	436.09253	-2963.76562	733.12396	428.92639	-2995.76733	495.16541	345.25336	-2985.74585	489.57898	229.91779	0.00000	0.00000	0.00000	-2931.35938	354.71240	357.47061	0.00000	0.00000	0.00000	-2940.64404	404.46918	356.08603	-2952.08057	89.31635	294.76001	0.00000	0.00000	0.00000	-2891.15063	40.45255	254.73055	0.00000	0.00000	0.00000	-3002.38379	1019.33325	29.14656	0.00000	0.00000	0.00000
1986	7.94000	-2806.54028	1019.17059	183.73221	-2948.47021	993.17804	54.11217	0.00000	0.00000	0.00000	-2969.56763	693.57568	18.39470	-3013.24805	761.27118	17.87077	0.00000	0.00000	0.00000	-3060.04858	492.54205	63.79335	0.00000	0.00000	0.00000	-2953.74170	467.61960	71.01652	-2930.16309	431.19968	69.62742	0.00000	0.00000	0.00000	-2965.69849	396.56769	60.66197	-2771.83276	224.38739	120.14256	0.00000	0.00000	0.00000	-2697.06689	226.50162	174.58508	-2812.63843	105.97650	73.28339	0.00000	0.00000	0.00000	-2843.39648	84.50554	171.18205	-2805.42505	1020.78705	264.21146	-2996.82959	1027.93787	372.97543	-3018.78394	791.95142	419.76474	0.00000	0.00000	0.00000	-2956.57666	780.37811	436.11276	-2966.13574	733.18048	428.90009	-2996.56348	495.01083	345.54813	-2986.76880	489.42343	230.05232	0.00000	0.00000	0.00000	-2931.78369	354.74921	357.55765	0.00000	0.00000	0.00000	-2941.16724	404.51404	356.16074	-2952.11304	89.30299	294.73190	0.00000	0.00000	0.00000	-2891.16797	40.45176	254.69156	0.00000	0.00000	0.00000	-3006.09277	1019.98621	29.40247	0.00000	0.00000	0.00000
